<mxfile host="www.draw.io" modified="2019-12-26T07:53:10.691Z" agent="Mozilla/5.0 (Windows NT 10.0; WOW64) AppleWebKit/537.36 (KHTML, like Gecko) Chrome/74.0.3729.131 Safari/537.36" etag="TIt7_thOe_TA2tUFq0U4" version="12.4.3" type="github" pages="1">
  <diagram id="DtKtHtbxeq_ghaz5WyAQ" name="Page-1">
    <mxGraphModel dx="1360" dy="753" grid="1" gridSize="10" guides="1" tooltips="1" connect="1" arrows="1" fold="1" page="1" pageScale="1" pageWidth="3300" pageHeight="4681" math="0" shadow="0">
      <root>
        <mxCell id="0"/>
        <mxCell id="1" parent="0"/>
        <mxCell id="g2pXE5J7bdPW5n_6ziGJ-14" value="" style="rounded=1;whiteSpace=wrap;html=1;" vertex="1" parent="1">
          <mxGeometry x="170" y="130" width="810" height="250" as="geometry"/>
        </mxCell>
        <mxCell id="g2pXE5J7bdPW5n_6ziGJ-6" style="edgeStyle=orthogonalEdgeStyle;rounded=0;orthogonalLoop=1;jettySize=auto;html=1;exitX=1;exitY=0.5;exitDx=0;exitDy=0;entryX=0;entryY=0.5;entryDx=0;entryDy=0;" edge="1" parent="1" source="g2pXE5J7bdPW5n_6ziGJ-1" target="g2pXE5J7bdPW5n_6ziGJ-2">
          <mxGeometry relative="1" as="geometry"/>
        </mxCell>
        <mxCell id="g2pXE5J7bdPW5n_6ziGJ-1" value="&lt;font style=&quot;font-size: 20px&quot;&gt;git&amp;nbsp;代码库&lt;/font&gt;" style="rounded=1;whiteSpace=wrap;html=1;" vertex="1" parent="1">
          <mxGeometry x="410" y="160" width="120" height="60" as="geometry"/>
        </mxCell>
        <mxCell id="g2pXE5J7bdPW5n_6ziGJ-7" style="edgeStyle=orthogonalEdgeStyle;rounded=0;orthogonalLoop=1;jettySize=auto;html=1;exitX=1;exitY=0.5;exitDx=0;exitDy=0;entryX=0;entryY=0.5;entryDx=0;entryDy=0;" edge="1" parent="1" source="g2pXE5J7bdPW5n_6ziGJ-2" target="g2pXE5J7bdPW5n_6ziGJ-3">
          <mxGeometry relative="1" as="geometry"/>
        </mxCell>
        <mxCell id="g2pXE5J7bdPW5n_6ziGJ-2" value="&lt;font style=&quot;font-size: 20px&quot;&gt;windows&amp;nbsp;拉某个版本分支&lt;/font&gt;" style="rounded=1;whiteSpace=wrap;html=1;" vertex="1" parent="1">
          <mxGeometry x="600" y="160" width="140" height="60" as="geometry"/>
        </mxCell>
        <mxCell id="g2pXE5J7bdPW5n_6ziGJ-8" style="edgeStyle=orthogonalEdgeStyle;rounded=0;orthogonalLoop=1;jettySize=auto;html=1;exitX=1;exitY=0.5;exitDx=0;exitDy=0;entryX=0;entryY=0.5;entryDx=0;entryDy=0;" edge="1" parent="1" source="g2pXE5J7bdPW5n_6ziGJ-3" target="g2pXE5J7bdPW5n_6ziGJ-4">
          <mxGeometry relative="1" as="geometry"/>
        </mxCell>
        <mxCell id="g2pXE5J7bdPW5n_6ziGJ-3" value="&lt;font style=&quot;font-size: 20px&quot;&gt;配置文件解密脚本&lt;/font&gt;" style="rounded=1;whiteSpace=wrap;html=1;" vertex="1" parent="1">
          <mxGeometry x="810" y="160" width="100" height="60" as="geometry"/>
        </mxCell>
        <mxCell id="g2pXE5J7bdPW5n_6ziGJ-9" style="edgeStyle=orthogonalEdgeStyle;rounded=0;orthogonalLoop=1;jettySize=auto;html=1;exitX=1;exitY=0.5;exitDx=0;exitDy=0;entryX=0;entryY=0.5;entryDx=0;entryDy=0;" edge="1" parent="1" source="g2pXE5J7bdPW5n_6ziGJ-4" target="g2pXE5J7bdPW5n_6ziGJ-5">
          <mxGeometry relative="1" as="geometry"/>
        </mxCell>
        <mxCell id="g2pXE5J7bdPW5n_6ziGJ-4" value="&lt;span style=&quot;font-size: 20px&quot;&gt;部署到测试服务器&lt;/span&gt;" style="rounded=1;whiteSpace=wrap;html=1;" vertex="1" parent="1">
          <mxGeometry x="280" y="290" width="100" height="60" as="geometry"/>
        </mxCell>
        <mxCell id="g2pXE5J7bdPW5n_6ziGJ-11" style="edgeStyle=orthogonalEdgeStyle;rounded=0;orthogonalLoop=1;jettySize=auto;html=1;exitX=1;exitY=0.5;exitDx=0;exitDy=0;entryX=0;entryY=0.5;entryDx=0;entryDy=0;" edge="1" parent="1" source="g2pXE5J7bdPW5n_6ziGJ-5" target="g2pXE5J7bdPW5n_6ziGJ-10">
          <mxGeometry relative="1" as="geometry"/>
        </mxCell>
        <mxCell id="g2pXE5J7bdPW5n_6ziGJ-5" value="&lt;span style=&quot;font-size: 20px&quot;&gt;测试服务器上修改配置文件参数脚本&lt;/span&gt;" style="rounded=1;whiteSpace=wrap;html=1;" vertex="1" parent="1">
          <mxGeometry x="450" y="285" width="130" height="70" as="geometry"/>
        </mxCell>
        <mxCell id="g2pXE5J7bdPW5n_6ziGJ-13" style="edgeStyle=orthogonalEdgeStyle;rounded=0;orthogonalLoop=1;jettySize=auto;html=1;exitX=1;exitY=0.5;exitDx=0;exitDy=0;" edge="1" parent="1" source="g2pXE5J7bdPW5n_6ziGJ-10" target="g2pXE5J7bdPW5n_6ziGJ-12">
          <mxGeometry relative="1" as="geometry"/>
        </mxCell>
        <mxCell id="g2pXE5J7bdPW5n_6ziGJ-10" value="&lt;span style=&quot;font-size: 20px&quot;&gt;运行冒烟自动化测试用例&lt;/span&gt;" style="rounded=1;whiteSpace=wrap;html=1;" vertex="1" parent="1">
          <mxGeometry x="640" y="285" width="130" height="70" as="geometry"/>
        </mxCell>
        <mxCell id="g2pXE5J7bdPW5n_6ziGJ-12" value="&lt;span style=&quot;font-size: 20px&quot;&gt;测试报告&lt;/span&gt;" style="rounded=1;whiteSpace=wrap;html=1;" vertex="1" parent="1">
          <mxGeometry x="820" y="285" width="130" height="70" as="geometry"/>
        </mxCell>
        <mxCell id="g2pXE5J7bdPW5n_6ziGJ-15" value="&lt;font style=&quot;font-size: 25px&quot;&gt;&lt;font style=&quot;font-size: 25px&quot;&gt;Jenkins&lt;/font&gt;/gitlab&lt;/font&gt;" style="text;html=1;strokeColor=none;fillColor=none;align=center;verticalAlign=middle;whiteSpace=wrap;rounded=0;" vertex="1" parent="1">
          <mxGeometry x="240" y="160" width="80" height="60" as="geometry"/>
        </mxCell>
      </root>
    </mxGraphModel>
  </diagram>
</mxfile>
